# xmcd CD database file
#
# Track frame offsets:
#	150
#	14687
#	34201
#	47674
#	69077
#	87306
#	100694
#	118245
#	133418
#	147616
#	166807
#	186983
#	203322
#
# Disc length: 3062 seconds
#
# Revision: 0
# Processed by: cddbd v1.5.2PL0 Copyright (c) Steve Scherf et al.
# Submitted via: CDex 1.51
#
DISCID=b80bf40d
DTITLE=Elmore James Jr. - Baby Please Set a Date
DYEAR=2010
DGENRE=Blues
TTITLE0=Baby Please Set A Date
TTITLE1=Send Me Someone
TTITLE2=Look On Yonder Wall
TTITLE3=Mean Mistreater
TTITLE4=Don't Get Mad At Me
TTITLE5=Dust My Broom
TTITLE6=Steppin' With Elmo
TTITLE7=The Sky Is Crying
TTITLE8=She's Gone
TTITLE9=Married Woman Blues
TTITLE10=Amtrack Train
TTITLE11=Dustin'
TTITLE12=I've Been Around the World
EXTD=YEAR: 2010
EXTT0=
EXTT1=
EXTT2=
EXTT3=
EXTT4=
EXTT5=
EXTT6=
EXTT7=
EXTT8=
EXTT9=
EXTT10=
EXTT11=
EXTT12=
PLAYORDER=
